# AST/ASF file generated using VICON BodyLanguage
# -----------------------------------------------
:version 1.10
:name VICON
:units
  mass 1.0
  length 0.45
  angle deg
:documentation
   .ast/.asf automatically generated from VICON data using
   VICON BodyBuilder and BodyLanguage model FoxedUp or BRILLIANT.MOD
:root
   order TX TY TZ RX RY RZ
   axis XYZ
   position 0 0 0  
   orientation 0 0 0 
:bonedata
  begin
     id 1 
     name lhipjoint
     direction 0.606768 -0.715223 0.346827 
     length 2.41543 
     axis 0 0 0  XYZ
  end
  begin
     id 2 
     name lfemur
     direction 0.34202 -0.939693 0  
     length 7.2778  
     axis 0 0 20  XYZ
    dof rx ry rz
    limits (-160.0 20.0)
           (-70.0 70.0)
           (-60.0 70.0)
  end
  begin
     id 3 
     name ltibia
     direction 0.34202 -0.939693 0   
     length 7.61811   
     axis 0 0 20   XYZ
    dof rx
    limits (-10.0 170.0)
  end
  begin
     id 4 
     name lfoot
     direction 0.0823924 -0.226371 0.97055   
     length 2.33618   
     axis -90 7.62852e-016 20   XYZ
    dof rx rz
    limits (-45.0 90.0)
           (-70.0 20.0)
  end
  begin
     id 5 
     name ltoes
     direction 1.53554e-011 -4.21934e-011 1   
     length 1.17015   
     axis -90 7.62852e-016 20   XYZ
    dof rx
    limits (-90.0 20.0)
  end
  begin
     id 6 
     name rhipjoint
     direction -0.6077 -0.714582 0.346516   
     length 2.4176  
     axis 0 0 0  XYZ 
  end
  begin
     id 7 
     name rfemur
     direction -0.34202 -0.939693 0   
     length 7.28127   
     axis 0 0 -20   XYZ
    dof rx ry rz
    limits (-160.0 20.0)
           (-70.0 70.0)
           (-70.0 60.0)
  end
  begin
     id 8 
     name rtibia
     direction -0.34202 -0.939693 0   
     length 7.77648   
     axis 0 0 -20   XYZ
    dof rx
    limits (-10.0 170.0)
 end
 begin
     id 9 
     name rfoot
     direction -0.0809463 -0.222398 0.97159   
     length 2.37533  
     axis -90 -7.62852e-016 -20   XYZ
    dof rx rz
    limits (-45.0 90.0)
           (-20.0 70.0)
  end
  begin
     id 10 
     name rtoes
     direction -1.53568e-011 -4.21714e-011 1   
     length 1.18972   
     axis -90 -7.62852e-016 -20   XYZ
    dof rx
    limits (-90.0 20.0)
  end
  begin
     id 11 
     name lowerback
     direction 0.010968 0.991932 -0.126297   
     length 2.21698   
     axis 0 0 0   XYZ
    dof rx ry rz
    limits (-20.0 45.0)
           (-30.0 30.0)
           (-30.0 30.0)
  end
  begin
     id 12 
     name upperback
     direction 0.0167007 0.997503 -0.0686276   
     length 2.22371   
     axis 0 0 0   XYZ
    dof rx ry rz
    limits (-20.0 45.0)
           (-30.0 30.0)
           (-30.0 30.0)
  end
  begin
     id 13 
     name thorax
     direction 0.0111721 0.999885 -0.0102878   
     length 2.25242   
     axis 0 0 0   XYZ
    dof rx ry rz
    limits (-20.0 45.0)
           (-30.0 30.0)
           (-30.0 30.0)
  end
  begin
     id 14 
     name lowerneck
     direction -0.0120265 0.990428 0.137508   
     length 1.57674   
     axis 0 0 0   XYZ
    dof rx ry rz
    limits (-20.0 45.0)
           (-30.0 30.0)
           (-30.0 30.0)
  end
  begin
     id 15 
     name upperneck
     direction 0.0175669 0.998907 0.0433089   
     length 1.5618   
     axis 0 0 0   XYZ
    dof rx ry rz
    limits (-20.0 45.0)
           (-30.0 30.0)
           (-30.0 30.0)
  end
  begin
     id 16
     name head
     direction 0.00754609 0.99997 0.00185367  
     length 1.60579  
     axis 0 0 0   XYZ
    dof rx ry rz
    limits (-20.0 45.0)
           (-30.0 30.0)
           (-30.0 30.0)
  end
  begin
     id 17 
     name lclavicle
     direction 0.885866 0.429166 -0.176231  
     length 3.44967  
     axis 0 0 0   XYZ
    dof ry rz
    limits (-20.0 10.0)
           (0.0 20.0)
  end
  begin
     id 18 
     name lhumerus
     direction 1 -4.48973e-011 -1.90255e-027   
     length 5.20607   
     axis 180 -30 -90   XYZ
    dof rx ry rz
    limits (-60.0 90.0)
           (-90.0 90.0)
           (-90.0 90.0)
  end
  begin
     id 19
     name lradius
     direction 1 -4.48956e-011 9.87925e-027   
     length 3.39961   
     axis 180 -30 -90   XYZ
    dof rx
    limits (-10.0 170.0)
  end
  begin
     id 20
     name lwrist
     direction 1 -4.48985e-011 1.73247e-026   
     length 1.6998   
     axis -9.60847e-015 90 90   XYZ
    dof ry
    limits (-180.0 0.0)
 end
  begin
     id 21 
     name lhand
     direction 1 -4.48798e-011 3.46119e-026   
     length 0.519693   
     axis -2.21073e-014 90 90   XYZ
    dof rx rz
    limits (-90.0 90.0)
           (-45.0 45.0)
  end
  begin
     id 22 
     name lfingers
     direction 1 -4.48938e-011 6.92797e-026   
     length 0.41899   
     axis -4.42155e-014 90 90   XYZ
    dof rx
    limits (0.0 90.0)
  end
  begin
     id 23
     name lthumb
     direction 0.707107 -6.34952e-011 0.707107   
     length 0.601588   
     axis -90 45 6.0103e-014   XYZ
    dof rx rz
    limits (-45.0 45.0)
           (-45.0 45.0)
  end
  begin
     id 24 
     name rclavicle
     direction -0.866736 0.456792 -0.200276   
     length 3.45032  
     axis 0 0 0   XYZ 
    dof ry rz
    limits (-10.0 20.0)
           (-20.0 0.0)
  end
  begin
     id 25 
     name rhumerus
     direction -1 -4.4897e-011 8.65094e-028  
     length 5.32214   
     axis 180 30 90   XYZ
    dof rx ry rz
    limits (-90.0 60.0)
           (-90.0 90.0)
           (-90.0 90.0)
  end
  begin
     id 26 
     name rradius
     direction -1 -4.48987e-011 1.08427e-026   
     length 3.51208   
     axis 180 30 90   XYZ
    dof rx
    limits (-10.0 170.0)
  end
  begin
     id 27 
     name rwrist
     direction -1 -4.48961e-011 1.73222e-026   
     length 1.75604   
     axis -9.60847e-015 -90 -90   XYZ
    dof ry
    limits (-180.0 0.0)
  end
  begin
     id 28
     name rhand
     direction -1 -4.48895e-011 3.46314e-026   
     length 0.586681   
     axis -2.21073e-014 -90 -90   XYZ
    dof rx rz
    limits (-90.0 90.0)
           (-45.0 45.0)
  end
  begin
     id 29
     name rfingers
     direction -1 -4.48968e-011 6.92916e-026   
     length 0.472997   
     axis -4.42155e-014 -90 -90   XYZ
    dof rx
    limits (0.0 90.0)
  end
  begin
     id 30
     name rthumb
     direction -0.707107 -6.34848e-011 0.707107   
     length 0.679133   
     axis -90 -45 -6.0103e-014   XYZ
    dof rx rz
    limits (-45.0 45.0)
           (-45.0 45.0)
  end
:hierarchy
  begin
    root lhipjoint rhipjoint lowerback
    lhipjoint lfemur
    lfemur ltibia
    ltibia lfoot
    lfoot ltoes
    rhipjoint rfemur
    rfemur rtibia
    rtibia rfoot
    rfoot rtoes
    lowerback upperback
    upperback thorax
    thorax lowerneck lclavicle rclavicle
    lowerneck upperneck
    upperneck head
    lclavicle lhumerus
    lhumerus lradius
    lradius lwrist
    lwrist lhand lthumb
    lhand lfingers
    rclavicle rhumerus
    rhumerus rradius
    rradius rwrist
    rwrist rhand rthumb
    rhand rfingers
  end

#!OML:ASF H:\Dans Jumps\Project 1\Capture day 1\Session 1\subject.ASF
:FULLY-SPECIFIED
:DEGREES
1
root 0.651252 17.447 -14.0888 8.98558 -2.02185 -3.26909
lowerback 0.156854 0.25445 1.61525
upperback 3.60348 0.244838 2.04954
thorax 3.61583 0.13583 1.21211
lowerneck -14.5012 0.400467 -1.93762
upperneck 27.285 1.15131 -0.212355
head 11.233 0.292236 0.412521
rclavicle 6.06293e-015 -3.18055e-015
rhumerus -20.6656 -17.9471 -79.1926
rradius 26.4373
rwrist 30.5845
rhand -19.5096 -26.7777
rfingers 7.12502
rthumb 6.81319 -56.6481
lclavicle 6.06293e-015 -3.18055e-015
lhumerus -23.5456 4.94165 82.7417
lradius 19.0128
lwrist 2.4509
lhand -23.2664 -0.0721
lfingers 7.12502
lthumb 3.18587 29.8838
rfemur -20.6306 -2.70971 21.0459
rtibia 28.0099
rfoot -15.7758 -0.95392
rtoes 2.92181
lfemur -18.9109 9.84833 -18.4513
ltibia 24.4843
lfoot -12.1633 6.22142
ltoes -8.00733
2
root 0.650896 17.4435 -14.0861 8.89489 -2.11011 -3.26194
lowerback 0.23701 0.259935 1.60817
upperback 3.64193 0.253753 2.04451
thorax 3.61029 0.140127 1.21093
lowerneck -14.5674 0.439095 -1.89399
upperneck 27.3711 1.22341 -0.302288
head 11.2795 0.316861 0.382745
rclavicle 5.1684e-015 5.76476e-015
rhumerus -20.6347 -17.7814 -79.3105
rradius 26.4053
rwrist 30.6011
rhand -19.5702 -26.7447
rfingers 7.12502
rthumb 6.75475 -56.617
lclavicle 5.1684e-015 5.76476e-015
lhumerus -23.5851 4.94718 82.6191
lradius 18.8696
lwrist 2.30796
lhand -23.2258 -0.0350067
lfingers 7.12502
lthumb 3.22502 29.9203
rfemur -20.635 -2.60653 21.0296
rtibia 28.3091
rfoot -15.7693 -0.918827
rtoes 2.46179
lfemur -18.8278 9.80336 -18.4364
ltibia 24.5769
lfoot -12.1733 6.36834
ltoes -7.97998
3
root 0.64928 17.4393 -14.0815 8.79768 -2.16463 -3.26833
lowerback 0.282131 0.25334 1.62515
upperback 3.68197 0.244893 2.0437
thorax 3.62652 0.136306 1.20038
lowerneck -14.5189 0.472405 -1.9384
upperneck 27.3978 1.28213 -0.303295
head 11.2793 0.338392 0.397922
rclavicle -3.67752e-015 8.15017e-015
rhumerus -20.5763 -17.6961 -79.424
rradius 26.3379
rwrist 30.662
rhand -19.5359 -26.6853
rfingers 7.12502
rthumb 6.78781 -56.5565
lclavicle -3.67752e-015 8.15017e-015
lhumerus -23.6228 5.02611 82.4787
lradius 18.692
lwrist 2.0558
lhand -23.428 -0.70945
lfingers 7.12502
lthumb 3.02972 29.2488
rfemur -20.5006 -2.47951 21.0203
rtibia 28.2958
rfoot -15.6868 -0.995262
rtoes 2.01926
lfemur -18.7198 9.71948 -18.3993
ltibia 24.6481
lfoot -12.1766 6.54304
ltoes -8.09339
4
root 0.64456 17.4366 -14.0734 8.71805 -2.16384 -3.24895
lowerback 0.284685 0.230201 1.61548
upperback 3.71273 0.213337 2.04641
thorax 3.65724 0.120325 1.20793
lowerneck -14.5226 0.509083 -1.9537
upperneck 27.4956 1.34841 -0.332267
head 11.317 0.361855 0.399472
rclavicle -1.49089e-015 3.57812e-015
rhumerus -20.5622 -17.4944 -79.5265
rradius 26.3028
rwrist 30.7162
rhand -19.5222 -26.59
rfingers 7.12502
rthumb 6.80109 -56.4608
lclavicle -1.49089e-015 3.57812e-015
lhumerus -23.6653 5.25822 82.3107
lradius 18.5836
lwrist 1.85369
lhand -23.3947 -0.734112
lfingers 7.12502
lthumb 3.06197 29.2236
rfemur -20.4222 -2.34155 20.9885
rtibia 28.258
rfoot -15.5976 -1.08572
rtoes 2.34447
lfemur -18.632 9.68242 -18.3866
ltibia 24.7176
lfoot -12.2176 6.6256
ltoes -8.19724
5
root 0.640243 17.4336 -14.0656 8.6343 -2.1655 -3.24233
lowerback 0.28912 0.208814 1.62065
upperback 3.74405 0.183887 2.049
thorax 3.68755 0.105862 1.20708
lowerneck -14.5185 0.543446 -1.97081
upperneck 27.5927 1.4104 -0.356553
head 11.353 0.38375 0.402424
rclavicle -1.07344e-014 -8.54774e-015
rhumerus -20.5409 -17.3468 -79.6297
rradius 26.2554
rwrist 30.7851
rhand -19.5176 -26.5055
rfingers 7.12502
rthumb 6.80552 -56.3761
lclavicle -1.07344e-014 -8.54774e-015
lhumerus -23.699 5.47237 82.136
lradius 18.394
lwrist 1.5681
lhand -23.4732 -1.22176
lfingers 7.12502
lthumb 2.98611 28.7371
rfemur -20.2525 -2.22353 20.9755
rtibia 28.0862
rfoot -15.4457 -1.17112
rtoes 2.42855
lfemur -18.5359 9.63269 -18.3582
ltibia 24.7813
lfoot -12.2487 6.71653
ltoes -8.29301
6
root 0.63465 17.431 -14.0562 8.55718 -2.13941 -3.23242
lowerback 0.26703 0.180116 1.62634
upperback 3.77006 0.14402 2.05177
thorax 3.72745 0.0862544 1.20592
lowerneck -14.5128 0.575868 -1.99303
upperneck 27.7128 1.46814 -0.369532
head 11.3974 0.404275 0.409911
rclavicle 5.96354e-016 -1.86858e-014
rhumerus -20.5334 -17.2083 -79.726
rradius 26.2105
rwrist 30.8621
rhand -19.5051 -26.4158
rfingers 7.12502
rthumb 6.81756 -56.286
lclavicle 5.96354e-016 -1.86858e-014
lhumerus -23.729 5.74113 81.9445
lradius 18.166
lwrist 1.21592
lhand -23.5941 -1.9033
lfingers 7.12502
lthumb 2.86931 28.0571
rfemur -20.026 -2.11326 20.963
rtibia 27.786
rfoot -15.2654 -1.28325
rtoes 2.59138
lfemur -18.4411 9.58014 -18.3288
ltibia 24.8365
lfoot -12.2873 6.78338
ltoes -8.39273
